<svg xmlns="http://www.w3.org/2000/svg" viewBox="0 0 800 500" fill="none"><rect width="800" height="500" fill="#f0eee7"/><circle cx="645" cy="97" r="166" fill="#e3dfcc"/><path d="M128 173c83-36 164-35 244 7v202c-80-42-161-43-244-7V173z" fill="#fffefa" stroke="#cfcabb" stroke-width="9"/><path d="M616 173c-83-36-164-35-244 7v202c80-42 161-43 244-7V173z" fill="#fffefa" stroke="#cfcabb" stroke-width="9"/><path d="M372 180v202m-199-161c49-14 94-12 139 8m-139 40c49-14 94-12 139 8m166-56c47-20 90-22 136-8m-136 64c47-20 90-22 136-8" stroke="#a7ae9e" stroke-width="8" stroke-linecap="round"/><path d="M620 314l67 39v84l-67-40v-83z" fill="#e4d9c7" stroke="#bda98b" stroke-width="7"/><path d="M620 314l48-29 68 39-49 29-67-39z" fill="#f4eee3" stroke="#bda98b" stroke-width="7"/><path d="M190 116l92-38 91 38-91 38-92-38z" fill="#d2dfd4" stroke="#93a69a" stroke-width="7"/><path d="M228 134v38c35 22 72 22 108 0v-38" stroke="#7f9786" stroke-width="7"/></svg>
